<?xml version="1.0" encoding="UTF-8" standalone="no"?>
<!DOCTYPE svg PUBLIC "-//W3C//DTD SVG 1.1//EN"
 "http://www.w3.org/Graphics/SVG/1.1/DTD/svg11.dtd">
<!-- Generated by graphviz version 2.26.3 (20100126.1600)
 -->
<!-- Title: _anonymous_1 Pages: 1 -->
<svg width="89pt" height="268pt"
 viewBox="0.00 0.00 89.00 268.00" xmlns="http://www.w3.org/2000/svg" xmlns:xlink="http://www.w3.org/1999/xlink">
<g id="graph1" class="graph" transform="scale(1 1) rotate(0) translate(4 264)">
<title>_anonymous_1</title>
<polygon fill="white" stroke="white" points="-4,5 -4,-264 86,-264 86,5 -4,5"/>
<!-- e1 -->
<g id="node1" class="node"><title>e1</title>
<ellipse fill="none" stroke="black" cx="54" cy="-241" rx="27" ry="18.3848"/>
<text text-anchor="middle" x="54" y="-237.4" font-family="Times Roman,serif" font-size="14.00">e1</text>
</g>
<!-- \\ -->
<g id="node3" class="node"><title>\\</title>
<ellipse fill="none" stroke="black" cx="27" cy="-167" rx="27" ry="18.3848"/>
<text text-anchor="middle" x="27" y="-163.4" font-family="Times Roman,serif" font-size="14.00">\</text>
</g>
<!-- e1&#45;&gt;\\ -->
<g id="edge2" class="edge"><title>e1&#45;&gt;\\</title>
<path fill="none" stroke="black" d="M47.3258,-222.708C44.2524,-214.284 40.5384,-204.105 37.1305,-194.765"/>
<polygon fill="black" stroke="black" points="40.3131,-193.276 33.5974,-185.082 33.7371,-195.676 40.3131,-193.276"/>
</g>
<!-- || -->
<g id="node4" class="node"><title>||</title>
<ellipse fill="none" stroke="black" cx="54" cy="-93" rx="27" ry="18.3848"/>
<text text-anchor="middle" x="54" y="-89.4" font-family="Times Roman,serif" font-size="14.00">||</text>
</g>
<!-- \\&#45;&gt;|| -->
<g id="edge3" class="edge"><title>\\&#45;&gt;||</title>
<path fill="none" stroke="black" d="M33.6742,-148.708C36.7476,-140.284 40.4616,-130.105 43.8695,-120.765"/>
<polygon fill="black" stroke="black" points="47.2629,-121.676 47.4026,-111.082 40.6869,-119.276 47.2629,-121.676"/>
</g>
<!-- ||&#45;&gt;e1 -->
<g id="edge4" class="edge"><title>||&#45;&gt;e1</title>
<path fill="none" stroke="black" d="M57.7944,-111.492C59.7818,-122.121 62.0045,-135.752 63,-148 64.3682,-164.833 64.3682,-169.167 63,-186 62.2923,-194.707 60.9643,-204.114 59.5415,-212.644"/>
<polygon fill="black" stroke="black" points="56.0923,-212.05 57.7944,-222.508 62.985,-213.271 56.0923,-212.05"/>
</g>
<!-- e2 -->
<g id="node6" class="node"><title>e2</title>
<ellipse fill="none" stroke="black" cx="54" cy="-19" rx="27" ry="18.3848"/>
<text text-anchor="middle" x="54" y="-15.4" font-family="Times Roman,serif" font-size="14.00">e2</text>
</g>
<!-- ||&#45;&gt;e2 -->
<g id="edge6" class="edge"><title>||&#45;&gt;e2</title>
<path fill="none" stroke="black" d="M54,-74.3267C54,-66.2639 54,-56.6477 54,-47.7115"/>
<polygon fill="black" stroke="black" points="57.5001,-47.6673 54,-37.6674 50.5001,-47.6674 57.5001,-47.6673"/>
</g>
</g>
</svg>
